<svg width="18" height="20" viewBox="0 0 18 20" fill="none" xmlns="http://www.w3.org/2000/svg">
<path d="M16.3612 15C17.1072 15.4561 17.5 15.9734 17.5 16.5C17.5 17.0266 17.1072 17.5439 16.3612 18C15.6152 18.4561 14.5422 18.8348 13.25 19.0981C11.9578 19.3614 10.4921 19.5 9 19.5C7.50794 19.5 6.04216 19.3614 4.75 19.0981C3.45784 18.8348 2.38482 18.4561 1.63878 18C0.892754 17.5439 0.5 17.0266 0.5 16.5C0.5 15.9734 0.892753 15.4561 1.63878 15" stroke="#222222" stroke-linecap="round"/>
<path d="M16.5 8C16.5 13.018 11.0117 16.4027 9.42489 17.2764C9.15683 17.424 8.84317 17.424 8.57511 17.2764C6.98831 16.4027 1.5 13.018 1.5 8C1.5 3.5 5.13401 0.5 9 0.5C13 0.5 16.5 3.5 16.5 8Z" stroke="#222222"/>
<circle cx="9" cy="8" r="3.5" stroke="#222222"/>
</svg>
